# File created by Blade
# Date/Time:  Tue Apr 07 20:13:55 2015
# Frame Rate: 120.000 fps
#------------------------------------------------------
:FULLY-SPECIFIED
:DEGREES
3690
root 2.415134 32.701640 -10.192577 -10.725916 -24.247774 -20.753886
Spine 24.928954 -17.227186 4.785720
Head -1.846998 -3.165331 6.373348
LeftShoulder 6.377524 28.627839 39.438215
LeftArm 67.335686 13.362399 -85.500726
LeftForeArm -80.415612 0.000000 68.549484
LeftHand 4.665842 0.000000 29.237261
LeftHandThumb1 -26.253704 0.000000 33.147579
RightShoulder -2.464445 1.281608 -16.812321
RightArm 25.072807 -27.499432 64.355365
RightForeArm 48.494011 -0.000000 89.701356
RightHand -0.793448 -0.000000 33.056866
RightHandThumb1 -24.326973 -0.000000 -32.862282
LeftUpLeg 7.164280 6.319246 15.888956
LeftLeg 29.024491 -0.000000 -0.000000
LeftFoot -17.562272 22.462471 -4.796180
LeftToeBase -15.071266 -0.000000 0.000000
RightUpLeg -130.488523 12.328912 38.939136
RightLeg 77.497567 -0.000000 -0.000000
RightFoot 38.964543 -14.794798 1.873331
RightToeBase 34.093154 -0.000000 -0.000000
3691
root 2.394069 32.731695 -10.230437 -10.684513 -23.833910 -21.036482
Spine 25.186304 -17.618040 4.825709
Head -1.999505 -3.155512 6.861257
LeftShoulder 6.704760 28.530898 39.436231
LeftArm 67.423573 13.034940 -85.716007
LeftForeArm -80.502851 0.000000 68.240487
LeftHand 4.517518 0.000000 28.689560
LeftHandThumb1 -26.253704 0.000000 33.147579
RightShoulder -2.334494 1.454192 -16.799632
RightArm 25.098711 -27.459511 64.423238
RightForeArm 48.431900 -0.000000 89.720745
RightHand -0.752044 -0.000000 32.923670
RightHandThumb1 -24.326973 -0.000000 -32.862282
LeftUpLeg 6.653328 6.455720 16.223472
LeftLeg 29.604227 -0.000000 -0.000000
LeftFoot -17.076089 22.567405 -4.645785
LeftToeBase -15.319728 -0.000000 0.000000
RightUpLeg -130.415767 11.697497 38.770685
RightLeg 77.357174 -0.000000 -0.000000
RightFoot 39.086936 -14.674831 1.657694
RightToeBase 33.614647 -0.000000 -0.000000
3692
root 2.730351 32.680008 -9.924353 -13.386255 -22.144423 -17.547048
Spine 26.455208 -19.111332 1.510183
Head -2.003485 -3.051765 5.983541
LeftShoulder 6.897913 28.620594 38.571390
LeftArm 67.615551 12.805948 -85.921253
LeftForeArm -80.755061 -0.000000 67.832643
LeftHand 4.521384 -0.000000 28.782858
LeftHandThumb1 -26.253704 0.000000 33.147579
RightShoulder -2.079597 1.486494 -17.568571
RightArm 25.261625 -27.428455 64.231543
RightForeArm 48.531189 0.000000 89.774273
RightHand -0.688573 0.000000 32.838746
RightHandThumb1 -24.326973 -0.000000 -32.862282
LeftUpLeg 8.158238 4.211881 11.284718
LeftLeg 28.602448 -0.000000 -0.000000
LeftFoot -16.117974 25.432552 -4.482036
LeftToeBase -14.459864 -0.000000 0.000000
RightUpLeg -130.732327 9.348703 32.844487
RightLeg 77.732410 -0.000000 -0.000000
RightFoot 38.037905 -14.508025 0.855301
RightToeBase 35.412069 -0.000000 -0.000000
3693
root 2.715350 32.709554 -9.968913 -13.309051 -21.804579 -17.703880
Spine 26.644122 -19.402994 1.441763
Head -2.077527 -3.012603 6.530285
LeftShoulder 7.170280 28.529273 38.534948
LeftArm 67.761600 12.485156 -86.057097
LeftForeArm -80.776759 -0.000000 67.410380
LeftHand 4.406073 -0.000000 27.821256
LeftHandThumb1 -26.253704 0.000000 33.147579
RightShoulder -1.944903 1.520000 -17.529250
RightArm 25.410254 -27.425716 64.121829
RightForeArm 48.606049 0.000000 89.815838
RightHand -0.702445 -0.000000 32.743585
RightHandThumb1 -24.326973 -0.000000 -32.862282
LeftUpLeg 7.679692 4.885241 11.582335
LeftLeg 28.926112 -0.000000 -0.000000
LeftFoot -15.473838 25.570205 -4.028418
LeftToeBase -15.079832 -0.000000 0.000000
RightUpLeg -130.648887 8.739354 32.376245
RightLeg 77.547988 -0.000000 -0.000000
RightFoot 38.084159 -14.405613 0.897952
RightToeBase 35.360553 -0.000000 -0.000000
3694
root 2.451834 32.841634 -10.461641 -9.437623 -23.419074 -22.417366
Spine 25.380122 -18.269438 6.273098
Head -2.858840 -2.846438 7.705310
LeftShoulder 7.288159 28.032999 38.617358
LeftArm 68.056332 11.955103 -86.056700
LeftForeArm -80.810503 -0.000000 66.890906
LeftHand 4.285445 -0.000000 27.411345
LeftHandThumb1 -26.253704 0.000000 33.147579
RightShoulder -1.828186 1.956676 -17.023587
RightArm 25.627262 -27.245899 63.864119
RightForeArm 48.707545 -0.000000 89.774053
RightHand -0.678412 0.000000 32.656754
RightHandThumb1 -24.326973 -0.000000 -32.862282
LeftUpLeg 4.383241 8.457584 17.492498
LeftLeg 30.782345 -0.000000 -0.000000
LeftFoot -15.197284 23.818964 -3.684522
LeftToeBase -16.436983 -0.000000 0.000000
RightUpLeg -130.949137 9.238975 32.019166
RightLeg 76.177785 -0.000000 -0.000000
RightFoot 37.593859 -17.576250 11.340492
RightToeBase 33.776672 -0.000000 -0.000000
3695
root 2.442504 32.877317 -10.497388 -9.373080 -23.140602 -22.618879
Spine 25.537814 -18.538131 6.357513
Head -2.884171 -2.799999 8.043414
LeftShoulder 7.447612 27.998961 38.410508
LeftArm 68.436253 11.723419 -85.919129
LeftForeArm -80.931286 0.000000 66.352181
LeftHand 4.373833 -0.000000 27.193574
LeftHandThumb1 -26.253704 0.000000 33.147579
RightShoulder -1.689905 1.988052 -16.998942
RightArm 25.808131 -27.283176 63.602695
RightForeArm 48.904345 0.000000 89.778288
RightHand -0.615627 0.000000 32.569035
RightHandThumb1 -24.326973 -0.000000 -32.862282
LeftUpLeg 4.156780 9.130304 17.650198
LeftLeg 30.658297 -0.000000 -0.000000
LeftFoot -14.651919 24.453461 -3.352299
LeftToeBase -16.800226 -0.000000 0.000000
RightUpLeg -130.808517 8.665571 31.761211
RightLeg 76.032047 -0.000000 -0.000000
RightFoot 37.503565 -17.737681 11.165299
RightToeBase 33.761920 -0.000000 -0.000000
3696
root 2.433116 32.914683 -10.542279 -9.199399 -22.934288 -22.864616
Spine 25.612496 -18.736430 6.540941
Head -2.932019 -2.722312 8.343352
LeftShoulder 7.563004 27.916541 38.108941
LeftArm 68.799690 11.474068 -85.842740
LeftForeArm -80.953677 0.000000 65.765979
LeftHand 3.770903 0.000000 27.210150
LeftHandThumb1 -26.253704 0.000000 33.147579
RightShoulder -1.568820 2.008206 -16.954185
RightArm 26.010119 -27.303119 63.323059
RightForeArm 49.110297 -0.000000 89.786256
RightHand -0.596934 -0.000000 32.542310
RightHandThumb1 -24.326973 -0.000000 -32.862282
LeftUpLeg 3.910230 9.904692 17.845212
LeftLeg 30.432190 -0.000000 -0.000000
LeftFoot -14.111071 25.102634 -3.090439
LeftToeBase -17.140309 -0.000000 0.000000
RightUpLeg -130.687239 8.244526 31.781469
RightLeg 75.833998 -0.000000 -0.000000
RightFoot 37.582467 -18.015058 10.772334
RightToeBase 33.757132 -0.000000 -0.000000
3697
root 2.424130 32.953258 -10.579823 -9.014553 -22.791656 -23.171974
Spine 25.672116 -18.936074 6.833877
Head -2.933059 -2.606731 8.510971
LeftShoulder 7.647494 27.844347 37.724417
LeftArm 69.192133 11.321397 -85.235338
LeftForeArm -81.523843 -0.000000 65.314961
LeftHand 4.989339 -0.000000 27.241200
LeftHandThumb1 -26.253704 0.000000 33.147579
RightShoulder -1.424194 2.105176 -16.933831
RightArm 26.165415 -27.344760 63.063890
RightForeArm 49.387424 -0.000000 89.761272
RightHand -0.585592 -0.000000 32.562164
RightHandThumb1 -24.326973 -0.000000 -32.862282
LeftUpLeg 3.759746 10.674415 18.047434
LeftLeg 30.079609 -0.000000 -0.000000
LeftFoot -13.589931 25.983602 -2.763450
LeftToeBase -17.261656 -0.000000 0.000000
RightUpLeg -130.540746 7.833634 31.744588
RightLeg 75.666343 -0.000000 -0.000000
RightFoot 37.650408 -17.989064 10.282464
RightToeBase 34.083508 -0.000000 -0.000000
3698
root 2.424199 32.990253 -10.620094 -8.821119 -22.603725 -23.419313
Spine 25.711491 -19.180446 7.080085
Head -2.972157 -2.460522 8.662488
LeftShoulder 7.790489 27.700329 37.382568
LeftArm 69.389188 11.117520 -85.345961
LeftForeArm -81.398352 -0.000000 64.940743
LeftHand 5.036611 -0.000000 27.760723
LeftHandThumb1 -26.253704 0.000000 33.147579
RightShoulder -1.282438 2.165786 -16.871652
RightArm 26.422967 -27.356016 62.741416
RightForeArm 49.566238 -0.000000 89.717674
RightHand -0.538136 -0.000000 32.554215
RightHandThumb1 -24.326973 -0.000000 -32.862282
LeftUpLeg 3.594385 11.314074 18.125035
LeftLeg 29.630472 -0.000000 -0.000000
LeftFoot -13.037390 26.919118 -2.447743
LeftToeBase -17.600640 -0.000000 0.000000
RightUpLeg -130.451513 7.398851 31.722219
RightLeg 75.483626 -0.000000 -0.000000
RightFoot 37.764678 -17.845368 9.932332
RightToeBase 33.973924 -0.000000 -0.000000
